<svg id="Capa_1" enable-background="new 0 0 512 512" height="512" viewBox="0 0 512 512" width="512" xmlns="http://www.w3.org/2000/svg"><g><path d="m104.517 238.23h30v-35.04h35.04v-30h-35.04v-35.04h-30v35.04h-35.04v30h35.04z"/><path d="m392.483 203.215h30.024v30h-30.024z"/><path d="m362.46 143.167h30.023v30h-30.023z"/><path d="m271.012 130.483h30.024v30h-30.024z"/><path d="m210.964 130.483h30.024v30h-30.024z"/><path d="m392.483 68.675h-272.967c-65.902 0-119.516 53.614-119.516 119.515v179.785c0 41.548 33.802 75.35 75.351 75.35 32.982 0 61.845-21.122 71.821-52.56l23.444-73.885c7.223 4.936 15.947 7.828 25.336 7.828 19.568 0 36.251-12.552 42.445-30.024h35.207c6.193 17.472 22.877 30.024 42.445 30.024 9.389 0 18.113-2.893 25.336-7.828l23.444 73.885c9.977 31.438 38.839 52.56 71.821 52.56 41.549 0 75.351-33.802 75.351-75.35v-179.785c-.001-65.901-53.616-119.515-119.518-119.515zm-272.967 30h272.968c49.359 0 89.517 40.156 89.517 89.516s-40.157 89.517-89.517 89.517c-11.151 0-21.919-1.998-32.122-5.935-3.752-21.064-22.188-37.111-44.314-37.111-19.568 0-36.251 12.552-42.445 30.023h-35.207c-6.193-17.472-22.877-30.023-42.445-30.023-22.126 0-40.562 16.047-44.314 37.111-10.201 3.938-20.971 5.935-32.123 5.935-49.358-.001-89.514-40.158-89.514-89.518s40.156-89.515 89.516-89.515zm-.94 283.016c-6.004 18.921-23.375 31.634-43.226 31.634-25.007 0-45.351-20.344-45.351-45.35v-100.689c21.914 24.772 53.919 40.421 89.516 40.421 7.904 0 15.665-.759 23.251-2.252zm77.376-86.982c-8.284 0-15.024-6.74-15.024-15.024s6.74-15.023 15.024-15.023 15.023 6.739 15.023 15.023-6.739 15.024-15.023 15.024zm120.096 0c-8.284 0-15.023-6.74-15.023-15.024s6.739-15.023 15.023-15.023 15.024 6.739 15.024 15.023-6.74 15.024-15.024 15.024zm165.952 73.267c0 25.006-20.344 45.35-45.351 45.35-19.851 0-37.222-12.713-43.226-31.634l-24.191-76.237c7.586 1.493 15.347 2.253 23.25 2.253 35.597 0 67.603-15.649 89.517-40.421v100.689z"/></g></svg>