<svg id="Capa_1" enable-background="new 0 0 512 512" height="512" viewBox="0 0 512 512" width="512" xmlns="http://www.w3.org/2000/svg"><g><path d="m370 0h-228c-24.813 0-45 20.187-45 45v422c0 24.813 20.187 45 45 45h228c24.813 0 45-20.187 45-45 0-11.512 0-363.944 0-422 0-24.813-20.187-45-45-45zm-243 45c0-8.271 6.729-15 15-15h228c8.271 0 15 6.729 15 15v164h-258zm243 437h-228c-8.271 0-15-6.729-15-15v-228h258v228c0 8.271-6.729 15-15 15z"/><path d="m176 97c-8.284 0-15 6.716-15 15v32c0 8.284 6.716 15 15 15s15-6.716 15-15v-32c0-8.284-6.716-15-15-15z"/><path d="m176 289c-8.284 0-15 6.716-15 15v64c0 8.284 6.716 15 15 15s15-6.716 15-15v-64c0-8.284-6.716-15-15-15z"/></g></svg>