<svg id="Capa_1" enable-background="new 0 0 512 512" height="512" viewBox="0 0 512 512" width="512" xmlns="http://www.w3.org/2000/svg"><g><g><path d="m409.091 122.276c2.559 0 5.118-.976 7.071-2.929 3.905-3.905 3.905-10.237 0-14.142l-.028-.028c-3.906-3.905-10.223-3.89-14.128.014-3.905 3.905-3.891 10.251.014 14.156 1.952 1.953 4.512 2.929 7.071 2.929z"/><path d="m508.542 391.28c-8.048-16.101-27.718-22.652-43.85-14.603-8.824 4.401-18.075 8.461-27.683 12.187l-38.617-76.842 39.86-136.466 33.39 3.621c17.969 1.961 32.107-5.261 37.83-19.314 6.3-15.468.296-35.564-13.965-46.746-.049-.039-.099-.077-.149-.115l-105.116-79.266c-7.88-7.453-18.869-8.52-26.979-2.524-1.351.999-2.628 2.066-3.84 3.187-24.364 1.526-44.201 16.038-60.528 44.249-14.161 24.468-24.076 56.28-33.664 87.044-2.969 9.524-5.807 18.621-8.74 27.451-18.093.213-36.577-1.531-50.108-4.486-12.139-2.665-31.138-4.138-43.569-4.519-17.935-21.779-39.005-34.06-59.737-34.697-19.018-.59-37.314 8.576-52.923 26.492-21.569 24.756-26.18 59.187-32.563 106.842-1.532 11.437-3.116 23.263-5.074 36.159-.567 3.734 1.019 7.469 4.098 9.655 1.725 1.224 3.752 1.845 5.789 1.845 1.602 0 3.209-.384 4.679-1.163 6.453-3.417 12.966-5.967 19.266-8.433 12.715-4.979 25.69-10.073 34.827-21.657 6.176 13.092 15.564 24.928 27.66 34.219l-28.832 57.358c-11.41-4.232-22.351-8.921-32.699-14.081-16.134-8.049-35.804-1.497-43.848 14.593-3.896 7.776-4.521 16.62-1.759 24.905 2.766 8.296 8.584 15.007 16.385 18.899 52.924 26.389 119.41 42.998 192.27 48.032.235.016.468.024.7.024 5.208 0 9.601-4.036 9.965-9.311.381-5.51-3.777-10.285-9.286-10.665-70.259-4.854-134.135-20.754-184.723-45.978-3.014-1.503-5.264-4.105-6.338-7.326-1.07-3.211-.833-6.628.671-9.63 3.121-6.243 10.763-8.777 17.036-5.647 120.01 59.842 315.259 59.842 435.241-.001 6.272-3.13 13.914-.596 17.039 5.657 1.505 3.004 1.744 6.427.671 9.639-1.072 3.211-3.322 5.805-6.343 7.308-50.619 25.253-114.523 41.152-184.803 45.977-5.51.378-9.67 5.152-9.291 10.661.378 5.51 5.147 9.674 10.661 9.291 72.886-5.004 139.404-21.614 192.352-48.029 7.804-3.884 13.626-10.587 16.393-18.875 2.768-8.286 2.143-17.141-1.756-24.921zm-25.309-262.37c8.063 6.371 10.286 17.099 7.716 23.411-2.851 6.999-10.894 7.657-17.146 6.975l-41.724-4.525c-4.809-.515-9.318 2.486-10.677 7.138l-43.312 148.285c-.709 2.428-.472 5.034.664 7.294l39.276 78.153c-12.451 4.081-25.392 7.64-38.695 10.683l-32.722-61.002c-9.486-17.692-21.981-25.241-41.778-25.241h-32.575v-43.876c8.63-1.887 16.57-6.202 22.986-12.626 8.793-8.805 13.626-20.458 13.608-32.806l-.022-25.628c22.328-9.722 27.642-27.867 33.232-46.982 3.481-11.904 7.423-25.386 15.826-40.324 3.223-4.947 4.325-6.883 5.058-8.171.65-1.143.87-1.528 3.723-5.343 2.472-3.304 2.66-7.787.475-11.287-7.633-12.225-5.478-35.635 7.896-45.662zm-260.123 148.382h29.152v42.788h-29.152zm61.213-105.649c15.124-48.527 30.683-98.436 60.731-113.095-3.702 13.136-2.883 27.485 1.93 38.887-.528.802-.927 1.478-1.417 2.338-.627 1.102-1.574 2.766-4.602 7.406-.116.177-.226.358-.33.543-9.646 17.058-14.148 32.454-17.765 44.826-5.918 20.238-8.898 30.429-26.827 36.045-5.447 1.457-11.583 2.533-18.096 3.275 2.166-6.725 4.292-13.54 6.376-20.225zm4.515 38.89.018 20.261c.01 7.006-2.746 13.63-7.761 18.652-5.053 5.06-11.741 7.847-18.833 7.847h-49.151c-14.648 0-26.566-11.894-26.566-26.513v-24.937c5.816.632 11.319 1.42 15.56 2.351 22.727 4.963 58.513 6.997 86.733 2.339zm-249.782 91.683c-1.346.527-2.73 1.069-4.143 1.632.879-6.318 1.696-12.42 2.499-18.418 6.14-45.845 10.197-76.131 27.82-96.359 11.703-13.431 24.221-20.031 37.23-19.639 11.354.349 23.261 6.073 34.57 16.428-30.577 5.709-52.795 24.683-61.095 53.233-2.637 9.069-3.611 18.376-3.092 27.579-3.139 23.527-14.744 28.087-33.789 35.544zm91.546 32.411c1.559-3.1 1.384-6.786-.437-9.739-.868-1.407-2.057-2.552-3.438-3.365-26.84-16.944-39.827-48.507-31.587-76.848 7.516-25.851 30.12-40.637 62.063-40.637.214 0 .431.001.645.002 2.451.018 5.426.107 8.697.261v26.479c0 22.218 15.681 40.836 36.566 45.42v44.634c-14.166 2.299-23.972 9.979-31.778 24.485l-33.361 62.188c-13.341-2.893-26.335-6.303-38.865-10.225zm27.916 76.886 30.432-56.728c5.991-11.132 11.862-14.706 24.161-14.706h91.726c12.32 0 18.189 3.57 24.153 14.694l29.912 55.764c-64.432 11.9-135.582 12.229-200.384.976z"/><path d="m255.941 464.659c-5.523 0-10 4.477-10 10s4.477 10 10 10h.057c5.523 0 9.971-4.477 9.971-10s-4.506-10-10.028-10z"/></g></g></svg>