<?xml version="1.0" encoding="iso-8859-1"?>
<!-- Generator: Adobe Illustrator 19.0.0, SVG Export Plug-In . SVG Version: 6.00 Build 0)  -->
<svg version="1.1" id="Capa_1" xmlns="http://www.w3.org/2000/svg" xmlns:xlink="http://www.w3.org/1999/xlink" x="0px" y="0px"
	 viewBox="0 0 512.001 512.001" style="enable-background:new 0 0 512.001 512.001;" xml:space="preserve">
<g>
	<g>
		<path d="M467,195.996h-60v-45c0-0.003,0-0.006,0-0.009c0-0.002,0-0.003,0-0.005c0-0.016-0.001-0.032-0.001-0.049
			c-0.007-4.842-0.865-10.083-2.611-15.004C438.755,137.41,467,109.851,467,75.996c0-33.084-26.916-60-60-60s-60,26.916-60,60
			c0,3.599,0.337,7.119,0.947,10.546l-58.268-40.34c-0.078-0.054-0.156-0.107-0.235-0.16c-17.795-11.828-41.667-9.458-56.761,5.636
			l-67.5,67.5c-17.544,17.544-17.544,46.091,0,63.635c17.543,17.544,46.09,17.545,63.635,0l41.09-41.09l21.931,15.799
			l-81.656,81.656l-180,180c-17.544,17.544-17.544,46.091,0,63.635c17.588,17.589,46.044,17.591,63.635,0L242,334.631l26.365,26.365
			l-58.182,58.182c-17.589,17.589-17.592,46.044,0,63.635c17.588,17.589,46.044,17.591,63.635,0l90-90
			c17.589-17.589,17.592-46.044,0-63.635l-58.183-58.182l14.221-14.22c6.405,17.053,22.881,29.22,42.145,29.22h105
			c24.813,0,45-20.187,45-45C512,216.183,491.813,195.996,467,195.996z M407,45.996c16.542,0,30,13.458,30,30s-13.458,30-30,30
			s-30-13.458-30-30S390.458,45.996,407,45.996z M277.091,109.924c-5.967-4.299-14.174-3.637-19.374,1.564L207.605,161.6
			c-5.865,5.864-15.343,5.866-21.209,0c-5.847-5.847-5.847-15.361,0-21.209l67.5-67.5c5.004-5.003,12.91-5.806,18.845-1.928
			l62.93,43.567c-1.953,1.403-3.793,2.952-5.496,4.657l-16.843,16.843L277.091,109.924z M72.604,461.6
			c-5.865,5.864-15.343,5.866-21.209,0c-5.847-5.847-5.847-15.361,0-21.208l149.987-149.987c2.177,4.545,5.131,8.739,8.801,12.408
			l10.604,10.604L72.604,461.6z M467,255.996H362c-8.271,0-15-6.729-15-15v-17.578c0-6.067-3.654-11.537-9.26-13.858
			c-5.603-2.321-12.057-1.039-16.347,3.251l-47.578,47.578c-5.858,5.858-5.858,15.355,0,21.213l68.789,68.789
			c5.865,5.866,5.865,15.343,0,21.208l-90,90c-5.865,5.865-15.342,5.866-21.209,0c-5.865-5.865-5.866-15.343,0-21.208l68.789-68.789
			c5.858-5.858,5.858-15.355,0-21.213L231.395,281.6c-5.847-5.847-5.847-15.361,0-21.208l119.999-119.998
			c9.347-9.358,25.582-2.653,25.604,10.581c0,0.012,0.001,0.024,0.001,0.036v59.986c0,8.284,6.716,15,15,15h75
			c8.271,0,15,6.729,15,15S475.271,255.996,467,255.996z"/>
	</g>
</g>
<g>
	<g>
		<path d="M122,75.996H47c-8.284,0-15,6.716-15,15s6.716,15,15,15h75c8.284,0,15-6.716,15-15S130.284,75.996,122,75.996z"/>
	</g>
</g>
<g>
	<g>
		<path d="M122,195.996H47c-8.284,0-15,6.716-15,15s6.716,15,15,15h75c8.284,0,15-6.716,15-15S130.284,195.996,122,195.996z"/>
	</g>
</g>
<g>
	<g>
		<path d="M92,135.996H15c-8.284,0-15,6.716-15,15s6.716,15,15,15h77c8.284,0,15-6.716,15-15S100.284,135.996,92,135.996z"/>
	</g>
</g>
<g>
</g>
<g>
</g>
<g>
</g>
<g>
</g>
<g>
</g>
<g>
</g>
<g>
</g>
<g>
</g>
<g>
</g>
<g>
</g>
<g>
</g>
<g>
</g>
<g>
</g>
<g>
</g>
<g>
</g>
</svg>
