<svg id="Capa_1" enable-background="new 0 0 512 512" height="512" viewBox="0 0 512 512" width="512" xmlns="http://www.w3.org/2000/svg"><g><path d="m469.97 204.205 14.523-24.205h12.507c8.284 0 15-6.716 15-15s-6.716-15-15-15h-21c-5.269 0-10.151 2.765-12.862 7.283l-12.213 20.354-20.141-70.494c-7.931-27.757-33.632-47.143-62.499-47.143h-224.57c-28.867 0-54.568 19.386-62.499 47.144l-20.141 70.494-12.213-20.354c-2.711-4.519-7.593-7.284-12.862-7.284h-21c-8.284 0-15 6.716-15 15s6.716 15 15 15h12.507l14.523 24.205c-24.536 9.301-42.03 33.038-42.03 60.795v112c0 8.284 6.716 15 15 15h26v25c0 19.299 15.701 35 35 35h40c19.299 0 35-15.701 35-35v-25h210v25c0 19.299 15.701 35 35 35h40c19.299 0 35-15.701 35-35v-25h26c8.284 0 15-6.716 15-15v-112c0-27.757-17.494-51.494-42.03-60.795zm-359.908-88.82c4.27-14.946 18.109-25.385 33.653-25.385h224.57c15.544 0 29.383 10.439 33.653 25.385l24.176 84.615h-26.623c-6.968-34.192-37.272-60-73.491-60s-66.522 25.808-73.491 60h-166.623zm173.508 84.615c6.191-17.461 22.874-30 42.43-30s36.239 12.539 42.43 30zm-162.57 217c0 2.757-2.243 5-5 5h-40c-2.757 0-5-2.243-5-5v-25h50zm90-55v-42h90v42zm230 55c0 2.757-2.243 5-5 5h-40c-2.757 0-5-2.243-5-5v-25h50zm41-55h-151v-57c0-8.284-6.716-15-15-15h-120c-8.284 0-15 6.716-15 15v57h-151v-97c0-19.299 15.701-35 35-35h.937c.026 0 .051.002.077.002.025 0 .049-.002.074-.002h379.824c.025 0 .049.002.074.002.026 0 .051-.002.077-.002h.937c19.299 0 35 15.701 35 35z"/><path d="m406 251c-24.813 0-45 20.187-45 45s20.187 45 45 45 45-20.187 45-45-20.187-45-45-45zm0 60c-8.271 0-15-6.729-15-15s6.729-15 15-15 15 6.729 15 15-6.729 15-15 15z"/><path d="m106 251c-24.813 0-45 20.187-45 45s20.187 45 45 45 45-20.187 45-45-20.187-45-45-45zm0 60c-8.271 0-15-6.729-15-15s6.729-15 15-15 15 6.729 15 15-6.729 15-15 15z"/></g></svg>