<svg height="511pt" viewBox="0 -7 511.99951 511" width="511pt" xmlns="http://www.w3.org/2000/svg"><path d="m131.675781 492.796875c5.855469 5.855469 15.355469 5.859375 21.210938 0l137.886719-137.886719 137.882812 137.886719c5.859375 5.855469 15.355469 5.859375 21.214844 0l42.425781-42.425781c5.859375-5.859375 5.859375-15.355469 0-21.214844l-159.097656-159.097656 53.03125-53.03125c14.167969-14.171875 16.617187-34.925782 8.792969-51.25l112.601562-112.996094c5.839844-5.863281 5.832031-15.34375-.019531-21.195312-29.226563-29.230469-76.664063-29.402344-106.09375.027343l-70.167969 70.550781c-16.71875-7.949218-37.359375-5.023437-51.179688 8.796876l-53.03125 53.03125-49.820312-49.820313-20.324219-101.613281c-1.566406-7.824219-8.984375-13.054688-16.882812-11.898438-29.371094 4.300782-68.070313 21.449219-93.285157 46.664063-38.222656 38.222656-46.332031 91.050781-46.660156 93.28125-1.15625 7.898437 4.074219 15.316406 11.898438 16.882812l101.613281 20.324219 28.609375 28.605469-137.886719 137.886719c-5.859375 5.859374-5.859375 15.355468 0 21.210937zm63.636719-296.984375c5.863281-5.863281 15.351562-5.863281 21.214844 0l84.851562 84.851562c5.847656 5.851563 5.847656 15.367188 0 21.214844-18.472656 18.472656-99.5625 99.5625-116.671875 116.671875l-106.066406-106.066406zm243.953125 265.164062-127.28125-127.277343 10.605469-10.609375c3.71875-3.714844 6.640625-7.933594 8.785156-12.429688l129.101562 129.105469zm-16.511719-408.179687c14.171875-14.171875 34.945313-16.613281 51.261719-8.789063l-98.410156 98.753907-21.222657-21.222657zm-121.375 79.375c5.851563-5.847656 15.363282-5.847656 21.214844 0l42.425781 42.429687c5.859375 5.859376 5.863281 15.347657 0 21.210938l-53.035156 53.035156-63.636719-63.640625zm-243.234375-52.316406 31.105469 31.105469c5.855469 5.859374 15.351562 5.859374 21.210938 0 5.859374-5.859376 5.859374-15.355469 0-21.214844l-31.105469-31.101563c18.070312-13.859375 38.210937-21.328125 51.246093-25.054687l16.609376 83.046875-31.074219 31.074219-83.046875-16.609376c3.726562-13.039062 11.195312-33.179687 25.054687-51.246093zm84.136719 84.136719 21.210938-21.210938 23.019531 23.019531c-4.546875 2.175781-8.742188 5.128907-12.410157 8.800781l-10.609374 10.605469zm-84.855469 169.707031 106.066407 106.0625-21.210938 21.214843-106.066406-106.066406zm0 0"/></svg>