<?xml version="1.0" encoding="iso-8859-1"?>
<!-- Generator: Adobe Illustrator 19.0.0, SVG Export Plug-In . SVG Version: 6.00 Build 0)  -->
<svg version="1.1" id="Capa_1" xmlns="http://www.w3.org/2000/svg" xmlns:xlink="http://www.w3.org/1999/xlink" x="0px" y="0px"
	 viewBox="0 0 512 512" style="enable-background:new 0 0 512 512;" xml:space="preserve">
<g>
	<g>
		<path d="M435.497,252.097V119.346h-60.77l3.211-31.877h18.326V0H76.503v87.469h18.326l31.307,310.768H96.315V512h280.137V398.237
			h-29.82l10.763-106.834L435.497,252.097z M405.497,149.346v84.265l-44.539,22.415l10.747-106.68H405.497z M106.503,30h259.762
			v27.469H106.503V30z M346.452,482H126.315v-53.763h220.137V482z M153.908,374.608H318.86l-2.38,23.629H156.288L153.908,374.608z
			 M321.882,344.609h-43.407l17.892-27.602v-35.3h-30v26.427l-23.643,36.475h-12.679l-23.643-36.475v-26.427h-30v35.3l17.892,27.602
			h-43.407L124.98,87.469h222.807L321.882,344.609z"/>
	</g>
</g>
<g>
	<g>
		<rect x="214.74" y="440.12" width="30" height="30"/>
	</g>
</g>
<g>
</g>
<g>
</g>
<g>
</g>
<g>
</g>
<g>
</g>
<g>
</g>
<g>
</g>
<g>
</g>
<g>
</g>
<g>
</g>
<g>
</g>
<g>
</g>
<g>
</g>
<g>
</g>
<g>
</g>
</svg>
